<?xml version="1.0" standalone="no"?><!DOCTYPE svg PUBLIC "-//W3C//DTD SVG 1.1//EN" "http://www.w3.org/Graphics/SVG/1.1/DTD/svg11.dtd"><svg t="1705401046803" class="icon" viewBox="0 0 1024 1024" version="1.1" xmlns="http://www.w3.org/2000/svg" p-id="4218" xmlns:xlink="http://www.w3.org/1999/xlink" width="200" height="200"><path d="M793.941 160H230.06C191.36 160 160 191.616 160 230.059v563.84C160 832.64 191.616 864 230.059 864h563.84c38.698 0 70.058-31.616 70.058-70.059V230.06C864 191.36 832.384 160 793.941 160z m5.718 640c0-0.299-575.659-0.341-575.659-0.341 0.299 0 0.341-575.659 0.341-575.659 0 0.299 575.659 0.341 575.659 0.341-0.299 0-0.341 575.659-0.341 575.659z" fill="#2c2c2c" p-id="4219"></path><path d="M703.659 681.472l0.341 0.17V349.654c-1.152-18.602-13.952-28.501-38.357-29.653H459.776c-12.8 1.152-19.755 9.301-20.95 24.405 1.153 15.104 8.15 23.254 20.95 24.406h190.123c3.498 0 5.248 1.749 5.248 5.248V656.64l0.469 0.256h-65.792c-6.699 0-17.579 8.704-18.432 22.656 0.853 15.104 10.112 23.253 18.432 24.405h98.944c8.79-1.066 13.739-8.576 14.89-22.485zM477.227 438.613c-11.648-1.152-18.006-9.301-19.2-24.405 1.152-13.952 7.552-21.504 19.2-22.656h143.018c13.952 1.152 21.504 8.704 22.656 22.656-1.152 15.104-8.149 23.253-20.949 24.405H477.227zM334.72 367.104c-6.827-1.152-22.016-9.301-22.699-24.448 0.683-13.952 13.398-21.504 20.267-22.656h56.235c8.234 1.152 20.01 8.704 20.693 22.656-0.64 15.147-13.141 23.296-20.693 24.448H334.72z m67.499 288.512v-204.8c1.152-25.6-8.704-37.803-29.654-36.65H330.71c-12.8 1.194-19.754 9.343-20.949 24.447 1.152 16.299 8.15 25.003 20.95 26.155h17.45c3.499 0 5.248 1.75 5.248 5.248v206.677a9.985 9.985 0 0 0-0.128 1.622c0.128 3.029 0.853 5.76 1.963 8.234 2.901 9.515 7.893 14.464 19.114 17.238 1.878 0.298 3.712-0.086 5.547-1.067h49.152c7.253-1.152 20.779-9.301 21.461-24.405-0.64-13.952-13.525-21.504-21.461-22.656h-26.837z m97.706-21.632c-24.405 0-36.65-11.648-36.65-34.901V497.92c0-23.253 10.453-34.901 31.402-34.901H597.59c24.406 0 36.054 9.898 34.902 29.653v106.41c0 23.254-10.454 34.902-31.403 34.902H499.925z m12.203-50.603c1.152 2.347 2.901 4.054 5.248 5.248h61.056c3.499 0 5.248-1.749 5.248-5.248v-68.01c0-3.499-1.75-5.248-5.248-5.248h-61.099c-3.498 0-5.248 1.749-5.248 5.248v68.01z" fill="#2c2c2c" p-id="4220"></path></svg>