<?xml version="1.0" standalone="no"?><!DOCTYPE svg PUBLIC "-//W3C//DTD SVG 1.1//EN" "http://www.w3.org/Graphics/SVG/1.1/DTD/svg11.dtd"><svg t="1705403669064" class="icon" viewBox="0 0 1024 1024" version="1.1" xmlns="http://www.w3.org/2000/svg" p-id="4215" xmlns:xlink="http://www.w3.org/1999/xlink" width="200" height="200"><path d="M523.3408 232.192l-5.7344 4.7104-5.888 5.1456-3.5072-3.1744a230.912 230.912 0 0 0-39.8592-27.8016c-55.6544-30.8224-121.7024-36.736-195.328-8.192-93.0304 36.0448-148.8896 139.52-130.8672 254.3872 20.6592 131.584 130.304 261.4784 327.3984 367.8208 12.7488 6.8608 25.216 10.8032 36.5312 11.9296l3.3024 0.256 2.2272 0.0512c13.44-0.4352 27.52-4.4544 41.984-12.2368 197.12-106.3424 306.7648-236.2624 327.424-367.8208 18.0224-114.8928-37.8368-218.3424-130.8672-254.3872-86.7072-33.6128-161.6128-19.456-220.672 24.576l-6.144 4.7616z m203.6992 30.3616c64.256 24.9088 104.192 98.944 90.752 184.8064-17.2032 109.5168-113.664 223.7952-294.5536 321.3824l-2.8672 1.4592a34.8672 34.8672 0 0 1-8.576 2.9952l-0.3584 0.0512a39.168 39.168 0 0 1-11.4944-4.5056c-180.9152-97.5872-277.376-211.8656-294.5536-321.3824-13.4656-85.8624 26.496-159.8976 90.752-184.8064 55.4496-21.504 101.7344-17.3568 141.184 4.5056a161.7408 161.7408 0 0 1 36.2496 27.4432c5.0432 5.0688 8.6016 9.2416 10.6496 11.9552l27.1872 39.1936 26.368-37.6064c1.2288-1.7152 3.4816-4.5824 7.168-8.6784 6.4-6.9888 14.0032-14.0288 22.8096-20.608 42.2912-31.5392 94.336-41.3696 159.2832-16.2048z" fill="#FB553C" p-id="4216"></path></svg>