<?xml version="1.0" standalone="no"?><!DOCTYPE svg PUBLIC "-//W3C//DTD SVG 1.1//EN" "http://www.w3.org/Graphics/SVG/1.1/DTD/svg11.dtd"><svg t="1704967565301" class="icon" viewBox="0 0 1024 1024" version="1.1" xmlns="http://www.w3.org/2000/svg" p-id="7014" xmlns:xlink="http://www.w3.org/1999/xlink" width="200" height="200"><path d="M777.37 327.6c-16.58-16.58-43.43-16.58-60 0-16.58 16.58-16.58 43.45 0 60 33.15 33.15 51.43 77.24 51.43 124.13s-18.27 90.98-51.43 124.13c-16.58 16.56-16.58 43.43 0 60 8.29 8.29 19.15 12.43 30 12.43 10.86 0 21.71-4.14 30-12.43 49.19-49.17 76.29-114.58 76.29-184.14s-27.1-134.95-76.29-184.12zM635.52 156c-6.29 0-12.74 1.43-18.96 4.53l-269.1 134.55a42.38 42.38 0 0 1-18.98 4.48H211.2c-23.44 0-42.43 19-42.43 42.43v339.47c0 23.44 19 42.43 42.43 42.43h117.28c6.59 0 13.08 1.53 18.98 4.48l269.1 134.55c6.21 3.11 12.67 4.54 18.96 4.54 22.27 0 42.45-17.89 42.45-42.49v-626.5c0.01-24.58-20.18-42.47-42.45-42.47z m-42.41 600.33L385.42 652.48c-17.59-8.79-37.27-13.44-56.93-13.44h-74.85V384.43h74.85c19.66 0 39.35-4.65 56.93-13.44l207.69-103.85v489.19z" fill="#1A1A1A" p-id="7015"></path></svg>